<?xml version="1.0" encoding="utf-8"?>
<!-- Generator: Adobe Illustrator 27.1.1, SVG Export Plug-In . SVG Version: 6.00 Build 0)  -->
<svg version="1.1" id="Layer_1" xmlns="http://www.w3.org/2000/svg" xmlns:xlink="http://www.w3.org/1999/xlink" x="0px" y="0px"
	 viewBox="0 0 542.4 538.7" style="enable-background:new 0 0 542.4 538.7;" xml:space="preserve">
<style type="text/css">
	.st0{fill:#FA8033;}
	.st1{fill:#FFFEFD;}
	.st2{fill:#FFFEFE;}
</style>
<path class="st0" d="M542.3,261.9c0,5,0.1,10.1-0.3,15.8c-1.1,10.2-1.5,19.7-2.7,29c-1.1,8.8-3.1,17.4-4.7,26.2
	c-0.1,0.8-0.1,1.5-0.6,2.8c-2.1,7.1-3.4,13.9-5.7,20.2c-6.1,17.2-13.4,33.8-22.7,49.5c-11,18.6-23.6,36.1-38.9,51.4
	c-10.2,10.2-21.2,19.8-32.6,28.6c-19.6,15.1-41.2,27.1-64.5,35.8c-18.1,6.8-36.6,12.2-55.9,14.6c-6.1,0.8-12.1,1.8-18.2,2.8
	c-15.4,0-30.7,0.1-46.8-0.3c-11.7-1.9-22.9-2.5-33.7-4.9c-26.2-5.9-51.3-14.9-74.8-28.2c-20-11.3-38.4-24.8-55.1-40.5
	c-7.5-7.1-14.2-15.1-21.1-22.9c-11.6-13.3-21.2-28-29.7-43.4c-10.9-19.8-18.6-40.9-24.7-62.6c-0.1-0.8-0.1-1.5-0.3-3
	c-4-16.9-6.7-33.2-6.9-49.9c0-1.7-0.5-3.4-0.8-5.1c0-5-0.1-10.1,0.3-15.8c1.1-9.9,1.8-19.1,2.6-28.2c1.5-17.1,5.8-33.6,11.2-49.8
	c5.7-17.3,13.3-33.8,22.6-49.6c11-18.7,23.6-36.2,38.9-51.5c10.1-10.1,21-19.5,32.2-28.3c19.7-15.4,41.5-27.4,64.9-36.2
	c18.1-6.8,36.6-12.2,55.9-14.6C236.4,3,242.4,2,248.5,1c15.4,0,30.7-0.1,46.8,0.3c4.5,0.8,8.3,0.8,12,1.6c15.4,3.2,30.9,6,46.1,10.1
	c17.6,4.7,34.1,12.4,50.1,21.3c21,11.7,40.1,25.9,57.3,42.5c6.9,6.6,13.6,13.6,19.2,21.3c10.3,14,20.5,28.2,29.4,43.1
	c9.5,15.9,16.2,33.2,21.4,51.1c6.2,21.3,10.3,42.8,10.8,65C541.6,258.8,542.1,260.3,542.3,261.9 M506.7,201.2
	c-12.3-41.8-34-78-65.9-107.7c-58.3-54.2-127.2-75.8-205.9-64.6c-55.1,7.9-102.2,32.6-140.2,73.2C42.2,158,20.5,224.6,29.5,300.6
	c6.8,57.3,31.7,106.3,73.8,145.7c58.1,54.4,127.2,76,205.9,64.5c66.6-9.8,120.5-42.6,160.1-96.9
	C515.9,349.7,527.5,278.5,506.7,201.2z"/>
<path class="st1" d="M506.9,201.6c20.7,76.9,9,148.2-37.6,212.3c-39.5,54.3-93.4,87.2-160.1,96.9c-78.6,11.5-147.8-10.1-205.9-64.5
	c-42.1-39.4-67-88.4-73.8-145.7c-9-76,12.7-142.6,65.1-198.5c38.1-40.6,85.1-65.3,140.2-73.2c78.7-11.2,147.6,10.4,205.9,64.6
	C472.7,123.2,494.4,159.4,506.9,201.6 M271,57.7c-62.5,0.7-115.2,24-157,70.2c-43.2,47.7-60.7,104.6-53.1,168.3
	c6.1,51.5,29,95.3,67.5,130.1c46.7,42.3,101.9,60.5,164.6,54.6c54.4-5.1,100.3-28.3,136.8-68.8c45.2-50.2,62.9-109.6,52.3-176.1
	C465.6,132.5,376.7,57.7,271,57.7z"/>
<path class="st0" d="M271.5,57.7c105.2,0,194.1,74.7,210.5,178.4c10.5,66.5-7.2,125.9-52.3,176.1c-36.4,40.5-82.4,63.7-136.8,68.8
	c-62.7,5.9-117.9-12.4-164.6-54.6C89.9,391.5,67,347.8,60.9,296.3c-7.5-63.8,9.9-120.6,53.1-168.3C155.8,81.8,208.5,58.4,271.5,57.7
	 M223.2,367c-3.5,2.1-8,3.5-10.2,6.5c-7.9,11.3-8.2,24-4.3,36.8c2.9,9.7,12,12.2,20.1,15.6c1.1,0.5,2.2,0.8,3.3,1.1
	c19.7,6.2,39.7,5.7,59.7,1.8c23.2-4.5,45.3-12.1,64.3-26.8c5.8-4.5,6.3-6.2,0.9-10.8c-6.1-5.1-12.3-10.4-19.4-13.8
	C301.1,359.9,263.1,356.2,223.2,367 M373.7,267.6c-14.6,25.1-24.6,51.7-24,81.2c0.1,3.8,2,8.2,4.5,11.1c7.1,8.3,16.7,12,27.6,13.3
	c7.7,0.9,14-0.9,18.8-6.7c5.2-6.2,11-12.3,14.6-19.5c18.1-36.3,20.7-74.2,9.7-113c-3.1-11-4.2-11.2-14.3-5.3
	C394.8,238,383.7,251.7,373.7,267.6 M138.8,183.7c-4.4,10.4-9,20.7-13.3,31.1c-1.5,3.6-0.1,6,3.8,6.3c5.9,0.6,12,1.9,17.9,1.2
	c44.4-5.1,80.1-25.9,107.9-60.6c3.3-4.1,4.6-8.7,3.3-13.6c-1.5-5.6-3.1-11.3-6-16.2c-8.6-14.8-18-18.8-34.4-14.1
	c-8.7,2.5-17.4,5.9-25.2,10.5C169.9,141.5,153,160.9,138.8,183.7 M169.8,262.1c-1.2-2-2.6-3.9-3.7-5.9c-4.7-8.9-12.2-12.3-21.9-11.4
	c-1.7,0.1-3.4-0.1-5,0.2c-11.4,1.8-27,8-28.3,22.3c-0.5,5.9-1.6,12-0.9,17.9c5.1,44.5,27.3,79.1,62.6,105.9c5.2,3.9,6.8,3.4,9.9-2.6
	c5.8-11.1,8.3-23.2,8.9-35.5C192.9,320.8,185.8,290.7,169.8,262.1 M370.5,220.5c3.2,0.1,6.8,1.2,9.7,0.2
	c12.8-4.4,20.8-13.9,25.3-26.4c3.7-10.2-2-18-7-25.9c-0.8-1.3-1.7-2.5-2.6-3.6c-14.2-18.1-33-29.8-53.8-38.4
	c-19.5-8.1-39.7-13.5-61.1-12.6c-6.5,0.3-7.4,0.9-6.4,7.4c0.7,4.9,1.8,9.9,3.8,14.4C296.6,176.9,327.8,204.3,370.5,220.5z"/>
<path class="st2" d="M223.6,366.9c39.6-10.6,77.5-7,114,10.6c7.1,3.4,13.3,8.7,19.4,13.8c5.4,4.6,4.9,6.3-0.9,10.8
	c-19.1,14.7-41.1,22.2-64.3,26.8c-20,3.9-40,4.4-59.7-1.8c-1.1-0.3-2.2-0.7-3.3-1.1c-8.1-3.4-17.1-5.9-20.1-15.6
	c-3.9-12.8-3.5-25.5,4.3-36.8C215.1,370.4,219.7,369.1,223.6,366.9z"/>
<path class="st2" d="M373.9,267.3c9.8-15.6,20.9-29.3,36.7-38.6c10.1-5.9,11.2-5.8,14.3,5.3c11,38.8,8.4,76.7-9.7,113
	c-3.6,7.1-9.4,13.2-14.6,19.5c-4.8,5.7-11.1,7.6-18.8,6.7c-10.9-1.2-20.5-5-27.6-13.3c-2.5-2.9-4.4-7.3-4.5-11.1
	C349.1,319.3,359.1,292.7,373.9,267.3z"/>
<path class="st2" d="M139,183.4c14-22.5,31-41.8,53.8-55.1c7.8-4.5,16.5-8,25.2-10.5c16.4-4.6,25.7-0.6,34.4,14.1
	c2.9,4.9,4.5,10.7,6,16.2c1.3,4.9,0,9.5-3.3,13.6c-27.8,34.7-63.5,55.5-107.9,60.6c-5.8,0.7-11.9-0.6-17.9-1.2
	c-3.9-0.4-5.3-2.8-3.8-6.3C129.8,204.4,134.3,194,139,183.4z"/>
<path class="st2" d="M170,262.4c15.7,28.4,22.8,58.4,21.3,90.4c-0.6,12.4-3,24.4-8.9,35.5c-3.1,6-4.7,6.5-9.9,2.6
	c-35.3-26.8-57.4-61.4-62.6-105.9c-0.7-5.8,0.3-11.9,0.9-17.9c1.3-14.4,17-20.6,28.3-22.3c1.6-0.3,3.3,0,5-0.2
	c9.7-0.8,17.2,2.5,21.9,11.4C167.2,258.2,168.6,260.1,170,262.4z"/>
<path class="st2" d="M370.1,220.3c-42.3-16-73.6-43.4-91.8-84.8c-2-4.5-3-9.5-3.8-14.4c-1-6.5,0-7.1,6.4-7.4
	c21.4-0.9,41.5,4.5,61.1,12.6c20.9,8.6,39.7,20.3,53.8,38.4c0.9,1.2,1.8,2.4,2.6,3.6c5,7.9,10.7,15.7,7,25.9
	c-4.5,12.5-12.5,22-25.3,26.4C377.3,221.6,373.7,220.6,370.1,220.3z"/>
</svg>
